<?xml version="1.0" encoding="utf-8"?>
<!-- Generator: Adobe Illustrator 28.2.0, SVG Export Plug-In . SVG Version: 6.00 Build 0)  -->
<svg version="1.1" id="Layer_1" xmlns="http://www.w3.org/2000/svg" xmlns:xlink="http://www.w3.org/1999/xlink" x="0px" y="0px"
	 viewBox="0 0 425.2 425.2" style="enable-background:new 0 0 425.2 425.2;" xml:space="preserve">
<style type="text/css">
	.st0{fill:#31A9E0;}
	.st1{fill:#211F20;}
	.st2{fill:none;stroke:#211F20;stroke-width:0.5;stroke-miterlimit:10;}
</style>
<polygon class="st0" points="108.97,275.48 182.27,150.12 226.14,240 252.72,167.74 208.95,89.52 219.83,70.61 335.09,275.74 
	313.07,275.74 265.16,189.49 226.56,286.62 179.42,193.38 130.99,275.48 "/>
<g>
	<polygon class="st1" points="226.15,239.97 226.14,240 182.27,150.12 108.97,275.48 130.99,275.48 179.42,193.38 226.56,286.62 
		226.61,286.5 	"/>
</g>
<g>
	<path d="M121.88,317.58c-1.81,0-3.22-0.53-4.23-1.58l-0.12-0.11c-0.44,0.49-1.09,0.9-1.95,1.23c-0.74,0.29-1.52,0.44-2.34,0.44
		c-0.15,0-0.3,0-0.44-0.01c-0.99-0.06-1.9-0.34-2.72-0.83c-2-1.15-3-3.05-3-5.71c0-2,0.55-3.59,1.66-4.78
		c1.22-1.28,2.9-1.93,5.03-1.94h0.04c1.21,0,2.3,0.21,3.26,0.64c1.4,0.61,2.1,1.48,2.1,2.63v4.83c0,0.95,0.25,1.69,0.75,2.2
		c0.44,0.45,1.1,0.68,1.98,0.68V317.58z M116.29,307.57c0-0.25-0.21-0.46-0.61-0.64c-0.53-0.23-1.16-0.35-1.87-0.35h-0.04
		c-1.17,0-2.07,0.35-2.72,1.04c-0.73,0.77-1.09,1.9-1.09,3.39c0,1.88,0.61,3.17,1.83,3.88c0.4,0.22,0.82,0.35,1.27,0.37
		c0.07,0.01,0.14,0.01,0.21,0.01c0.37,0,0.72-0.07,1.07-0.21c1.12-0.44,1.78-1.33,1.96-2.68V307.57z M110.18,301.04
		c0-0.21,0.04-0.4,0.12-0.57s0.19-0.33,0.32-0.47c0.13-0.13,0.29-0.24,0.46-0.31c0.17-0.08,0.36-0.11,0.55-0.11s0.38,0.04,0.56,0.11
		c0.18,0.08,0.33,0.18,0.47,0.31c0.13,0.13,0.24,0.29,0.31,0.47c0.08,0.18,0.11,0.37,0.11,0.57s-0.04,0.39-0.11,0.57
		c-0.08,0.17-0.18,0.33-0.31,0.45c-0.13,0.13-0.29,0.23-0.47,0.31c-0.18,0.08-0.36,0.11-0.56,0.11s-0.38-0.04-0.55-0.11
		c-0.17-0.08-0.33-0.18-0.46-0.31c-0.13-0.13-0.24-0.28-0.32-0.45S110.18,301.25,110.18,301.04z M113.66,301.04
		c0-0.21,0.04-0.4,0.12-0.57s0.19-0.33,0.32-0.47c0.13-0.13,0.29-0.24,0.47-0.31c0.18-0.08,0.37-0.11,0.57-0.11
		c0.2,0,0.38,0.04,0.55,0.11c0.17,0.08,0.32,0.18,0.45,0.31c0.13,0.13,0.23,0.29,0.31,0.47s0.11,0.37,0.11,0.57
		s-0.04,0.39-0.11,0.57s-0.18,0.33-0.31,0.45c-0.13,0.13-0.28,0.23-0.45,0.31c-0.17,0.08-0.36,0.11-0.55,0.11
		c-0.2,0-0.4-0.04-0.57-0.11c-0.18-0.08-0.33-0.18-0.47-0.31c-0.13-0.13-0.24-0.28-0.32-0.45S113.66,301.25,113.66,301.04z"/>
	<path d="M129.63,306.69v6.45c0,1.17-0.43,2.19-1.28,3.04c-0.93,0.93-2.08,1.4-3.44,1.4h-4.49v-2.3h4.49c0.45,0,0.85-0.18,1.2-0.53
		c0.44-0.43,0.65-0.97,0.65-1.62v-6.45H129.63z M121.95,321.01c0-0.21,0.04-0.4,0.12-0.57s0.19-0.33,0.32-0.47
		c0.13-0.13,0.29-0.24,0.46-0.31c0.17-0.08,0.36-0.11,0.55-0.11s0.38,0.04,0.56,0.11c0.18,0.08,0.33,0.18,0.47,0.31
		c0.13,0.13,0.24,0.29,0.31,0.47s0.11,0.37,0.11,0.57s-0.04,0.39-0.11,0.57s-0.18,0.33-0.31,0.45c-0.13,0.13-0.29,0.23-0.47,0.31
		c-0.18,0.08-0.37,0.11-0.56,0.11s-0.38-0.04-0.55-0.11c-0.17-0.08-0.33-0.18-0.46-0.31c-0.13-0.13-0.24-0.28-0.32-0.45
		S121.95,321.22,121.95,321.01z M125.43,321.01c0-0.21,0.04-0.4,0.12-0.57s0.19-0.33,0.32-0.47c0.13-0.13,0.29-0.24,0.47-0.31
		c0.18-0.08,0.37-0.11,0.57-0.11c0.2,0,0.38,0.04,0.55,0.11c0.17,0.08,0.32,0.18,0.45,0.31c0.13,0.13,0.23,0.29,0.31,0.47
		c0.08,0.18,0.11,0.37,0.11,0.57s-0.04,0.39-0.11,0.57c-0.08,0.17-0.18,0.33-0.31,0.45c-0.13,0.13-0.28,0.23-0.45,0.31
		c-0.17,0.08-0.36,0.11-0.55,0.11c-0.21,0-0.4-0.04-0.57-0.11s-0.33-0.18-0.47-0.31c-0.13-0.13-0.24-0.28-0.32-0.45
		S125.43,321.22,125.43,321.01z"/>
	<path d="M131.91,320.34c0.38-0.46,0.68-0.89,0.89-1.28c0.56-1.05,0.84-2.25,0.84-3.6v-8.77h2.87v8.7c0,1.69-0.36,3.21-1.07,4.55
		c-0.29,0.54-0.67,1.1-1.16,1.68c-0.44,0.53-1.02,1.13-1.74,1.78l-2.28-1.39C130.98,321.35,131.53,320.8,131.91,320.34z"/>
	<path d="M141.79,301.61v11.52c0,0.65,0.22,1.19,0.65,1.62c0.36,0.36,0.76,0.53,1.2,0.53h3.15v2.3h-3.15c-1.36,0-2.51-0.47-3.44-1.4
		c-0.85-0.85-1.28-1.87-1.28-3.04v-11.52H141.79z"/>
	<path d="M145.59,317.58v-2.3l12.15,0.01c-0.02-0.12-0.06-0.5-0.13-1.15c-0.28-2.51-0.63-4.25-1.04-5.22
		c-0.67-1.57-1.79-2.35-3.36-2.35c-0.57,0-1.08,0.08-1.52,0.24c-0.44,0.15-0.81,0.38-1.12,0.68c-0.18,0.18-0.33,0.37-0.47,0.59
		c-0.15,0.22-0.3,0.54-0.45,0.96l-2.79-0.57c0.23-0.61,0.46-1.09,0.68-1.44c0.23-0.37,0.5-0.69,0.8-0.97
		c0.6-0.59,1.33-1.03,2.16-1.33c0.83-0.29,1.73-0.44,2.71-0.44c2.75,0,4.68,1.06,5.79,3.18c0.64,1.23,1.13,3.39,1.47,6.49
		c0.07,0.62,0.12,1.07,0.16,1.33h2.1v2.3H145.59z M152.27,321.09c0-0.21,0.04-0.4,0.12-0.57s0.19-0.33,0.32-0.47
		c0.13-0.13,0.29-0.24,0.46-0.31c0.17-0.08,0.36-0.11,0.55-0.11s0.38,0.04,0.56,0.11c0.18,0.08,0.33,0.18,0.47,0.31
		c0.13,0.13,0.24,0.29,0.31,0.47c0.08,0.18,0.11,0.37,0.11,0.57s-0.04,0.39-0.11,0.57c-0.08,0.17-0.18,0.33-0.31,0.45
		c-0.13,0.13-0.29,0.23-0.47,0.31c-0.18,0.08-0.36,0.11-0.56,0.11s-0.38-0.04-0.55-0.11c-0.17-0.08-0.33-0.18-0.46-0.31
		c-0.13-0.13-0.24-0.28-0.32-0.45S152.27,321.3,152.27,321.09z"/>
	<path d="M161.25,317.58v-2.3h1.11c0.72,0,1.3-0.22,1.74-0.67c0.5-0.52,0.75-1.25,0.75-2.22v-5.71h2.88v5.99
		c0.04,0.82,0.29,1.46,0.73,1.92c0.44,0.45,1.01,0.68,1.7,0.68h1.16v2.3h-1.16c-1.63,0-2.92-0.49-3.87-1.48
		c-0.96,0.99-2.27,1.48-3.92,1.48H161.25z M163.01,303.39c0-0.21,0.04-0.4,0.12-0.57s0.19-0.33,0.32-0.47
		c0.13-0.13,0.29-0.24,0.46-0.31c0.17-0.08,0.36-0.11,0.55-0.11s0.38,0.04,0.56,0.11c0.18,0.08,0.33,0.18,0.47,0.31
		c0.13,0.13,0.24,0.29,0.31,0.47c0.08,0.18,0.11,0.37,0.11,0.57s-0.04,0.39-0.11,0.57c-0.08,0.17-0.18,0.33-0.31,0.45
		c-0.13,0.13-0.29,0.23-0.47,0.31c-0.18,0.08-0.36,0.11-0.56,0.11s-0.38-0.04-0.55-0.11c-0.17-0.08-0.33-0.18-0.46-0.31
		c-0.13-0.13-0.24-0.28-0.32-0.45C163.05,303.78,163.01,303.59,163.01,303.39z M166.5,303.39c0-0.21,0.04-0.4,0.12-0.57
		s0.19-0.33,0.32-0.47c0.13-0.13,0.29-0.24,0.47-0.31c0.18-0.08,0.37-0.11,0.57-0.11c0.2,0,0.38,0.04,0.55,0.11
		c0.17,0.08,0.32,0.18,0.45,0.31c0.13,0.13,0.23,0.29,0.31,0.47s0.11,0.37,0.11,0.57s-0.04,0.39-0.11,0.57
		c-0.08,0.17-0.18,0.33-0.31,0.45c-0.13,0.13-0.28,0.23-0.45,0.31c-0.17,0.08-0.36,0.11-0.55,0.11c-0.21,0-0.4-0.04-0.57-0.11
		c-0.18-0.08-0.33-0.18-0.47-0.31s-0.24-0.28-0.32-0.45C166.54,303.78,166.5,303.59,166.5,303.39z"/>
	<path d="M176.92,301.61v11.52c0,1.17-0.43,2.19-1.28,3.04c-0.93,0.93-2.08,1.4-3.44,1.4h-2.35v-2.3h2.35c0.44,0,0.85-0.18,1.2-0.53
		c0.44-0.43,0.65-0.97,0.65-1.62v-11.52H176.92z"/>
	<path d="M182.2,301.61v15.08h-2.87v-15.08H182.2z"/>
	<path d="M206.19,317.58c-1.81,0-3.22-0.53-4.23-1.58l-0.12-0.11c-0.44,0.49-1.09,0.9-1.95,1.23c-0.74,0.29-1.52,0.44-2.34,0.44
		c-0.15,0-0.3,0-0.44-0.01c-0.99-0.06-1.9-0.34-2.72-0.83c-2-1.15-3-3.05-3-5.71c0-2,0.55-3.59,1.66-4.78
		c1.22-1.28,2.9-1.93,5.03-1.94h0.04c1.21,0,2.3,0.21,3.26,0.64c1.4,0.61,2.1,1.48,2.1,2.63v4.83c0,0.95,0.25,1.69,0.75,2.2
		c0.44,0.45,1.1,0.68,1.98,0.68V317.58z M200.59,307.57c0-0.25-0.21-0.46-0.61-0.64c-0.53-0.23-1.16-0.35-1.87-0.35h-0.04
		c-1.17,0-2.07,0.35-2.72,1.04c-0.73,0.77-1.09,1.9-1.09,3.39c0,1.88,0.61,3.17,1.83,3.88c0.4,0.22,0.82,0.35,1.27,0.37
		c0.07,0.01,0.14,0.01,0.21,0.01c0.37,0,0.72-0.07,1.07-0.21c1.12-0.44,1.78-1.33,1.96-2.68V307.57z M194.48,301.04
		c0-0.21,0.04-0.4,0.12-0.57s0.19-0.33,0.32-0.47c0.13-0.13,0.29-0.24,0.46-0.31c0.17-0.08,0.36-0.11,0.55-0.11s0.38,0.04,0.56,0.11
		c0.18,0.08,0.33,0.18,0.47,0.31c0.13,0.13,0.24,0.29,0.31,0.47c0.08,0.18,0.11,0.37,0.11,0.57s-0.04,0.39-0.11,0.57
		c-0.08,0.17-0.18,0.33-0.31,0.45c-0.13,0.13-0.29,0.23-0.47,0.31c-0.18,0.08-0.36,0.11-0.56,0.11s-0.38-0.04-0.55-0.11
		c-0.17-0.08-0.33-0.18-0.46-0.31c-0.13-0.13-0.24-0.28-0.32-0.45S194.48,301.25,194.48,301.04z M197.96,301.04
		c0-0.21,0.04-0.4,0.12-0.57s0.19-0.33,0.32-0.47c0.13-0.13,0.29-0.24,0.47-0.31c0.18-0.08,0.37-0.11,0.57-0.11
		c0.2,0,0.38,0.04,0.55,0.11c0.17,0.08,0.32,0.18,0.45,0.31c0.13,0.13,0.23,0.29,0.31,0.47s0.11,0.37,0.11,0.57
		s-0.04,0.39-0.11,0.57s-0.18,0.33-0.31,0.45c-0.13,0.13-0.28,0.23-0.45,0.31c-0.17,0.08-0.36,0.11-0.55,0.11
		c-0.2,0-0.4-0.04-0.57-0.11c-0.18-0.08-0.33-0.18-0.47-0.31c-0.13-0.13-0.24-0.28-0.32-0.45S197.96,301.25,197.96,301.04z"/>
	<path d="M213.93,306.69v6.45c0,1.17-0.43,2.19-1.28,3.04c-0.93,0.93-2.08,1.4-3.44,1.4h-4.49v-2.3h4.49c0.45,0,0.85-0.18,1.2-0.53
		c0.44-0.43,0.65-0.97,0.65-1.62v-6.45H213.93z M207.57,303.59c0-0.21,0.04-0.4,0.12-0.57s0.19-0.33,0.32-0.47
		c0.13-0.13,0.29-0.24,0.46-0.31c0.17-0.08,0.36-0.11,0.55-0.11s0.38,0.04,0.56,0.11c0.18,0.08,0.33,0.18,0.47,0.31
		c0.13,0.13,0.24,0.29,0.31,0.47c0.08,0.18,0.11,0.37,0.11,0.57s-0.04,0.39-0.11,0.57c-0.08,0.17-0.18,0.33-0.31,0.45
		c-0.13,0.13-0.29,0.23-0.47,0.31c-0.18,0.08-0.36,0.11-0.56,0.11s-0.38-0.04-0.55-0.11c-0.17-0.08-0.33-0.18-0.46-0.31
		c-0.13-0.13-0.24-0.28-0.32-0.45S207.57,303.79,207.57,303.59z"/>
	<path d="M227.89,317.58c-0.16,0.78-0.48,1.58-0.96,2.38c-0.28,0.53-0.66,1.09-1.15,1.67c-0.45,0.53-1.02,1.13-1.74,1.79l-2-1.42
		c0.7-0.65,1.25-1.2,1.63-1.66c0.38-0.46,0.68-0.89,0.89-1.28c0.29-0.57,0.46-1.06,0.51-1.48h-2.34c-2.05,0-3.7-0.66-4.95-1.98
		c-1.15-1.18-1.72-2.71-1.72-4.59c0-2,0.55-3.59,1.66-4.78c1.22-1.28,2.9-1.93,5.03-1.94h0.04c1.21,0,2.3,0.21,3.26,0.64
		c1.4,0.61,2.1,1.48,2.1,2.63v7.72h2.38v2.3H227.89z M225.28,307.57c0-0.25-0.21-0.46-0.61-0.64c-0.53-0.23-1.16-0.35-1.87-0.35
		h-0.04c-1.17,0-2.07,0.35-2.72,1.04c-0.73,0.77-1.09,1.9-1.09,3.39c0,1.36,0.37,2.43,1.12,3.19c0.69,0.72,1.68,1.08,2.95,1.08v0.01
		h2.27V307.57z"/>
	<path d="M229.32,317.58v-2.3h3.79c-0.9-0.81-1.58-2.07-2.06-3.79c-0.23-0.84-0.35-1.6-0.35-2.3c0-1.17,0.31-2.14,0.92-2.94
		c0.63-0.82,1.53-1.38,2.68-1.7c0.66-0.19,1.38-0.28,2.16-0.28h1.92c0.79,0,1.52,0.09,2.18,0.28c1.16,0.32,2.05,0.89,2.67,1.7
		c0.61,0.79,0.92,1.77,0.92,2.94c0,0.69-0.12,1.46-0.35,2.3c-0.46,1.72-1.15,2.98-2.06,3.79h3.74v2.3H229.32z M237.44,315.31
		c0.45-0.18,0.9-0.45,1.35-0.8c1.09-0.86,1.83-2.03,2.24-3.5c0.18-0.67,0.27-1.27,0.27-1.82c0-0.73-0.17-1.31-0.49-1.74
		c-0.27-0.35-0.65-0.59-1.16-0.73c-0.37-0.1-0.78-0.15-1.24-0.15h-1.92c-0.46,0-0.87,0.05-1.23,0.15c-0.51,0.14-0.89,0.39-1.16,0.73
		c-0.33,0.43-0.49,1.01-0.49,1.74c0,0.54,0.09,1.15,0.27,1.82c0.41,1.47,1.16,2.63,2.24,3.5
		C236.55,314.87,236.99,315.13,237.44,315.31z"/>
	<path d="M247.05,311.01c0-2.01,0.55-3.6,1.66-4.78c1.23-1.3,2.91-1.95,5.03-1.95c2.14,0,3.83,0.65,5.05,1.94
		c1.1,1.17,1.66,2.77,1.66,4.79c0,1.9-0.58,3.44-1.74,4.62c-1.26,1.3-2.92,1.95-4.98,1.95c-2.05,0-3.67-0.63-4.86-1.88
		c-0.03,0.03-0.13,0.13-0.31,0.32c-1.01,1.04-2.43,1.56-4.26,1.56v-2.3c0.9,0,1.57-0.22,2-0.67c0.5-0.52,0.75-1.25,0.75-2.22V311.01
		z M256.47,307.61c-0.64-0.68-1.55-1.03-2.74-1.03c-1.17,0-2.07,0.34-2.71,1.03c-0.74,0.77-1.11,1.91-1.11,3.4
		c0,1.36,0.37,2.43,1.12,3.19c0.69,0.72,1.59,1.08,2.68,1.08c1.13,0,2.04-0.35,2.72-1.05c0.75-0.77,1.12-1.84,1.12-3.22
		C257.57,309.5,257.2,308.36,256.47,307.61z"/>
	<path d="M284.43,317.58c-1.81,0-3.22-0.53-4.23-1.58l-0.12-0.11c-0.45,0.49-1.09,0.9-1.95,1.23c-0.74,0.29-1.52,0.44-2.34,0.44
		c-0.15,0-0.3,0-0.44-0.01c-0.99-0.06-1.9-0.34-2.72-0.83c-2-1.15-3-3.05-3-5.71c0-2,0.55-3.59,1.66-4.78
		c1.22-1.28,2.9-1.93,5.03-1.94h0.04c1.21,0,2.3,0.21,3.26,0.64c1.4,0.61,2.1,1.48,2.1,2.63v4.83c0,0.95,0.25,1.69,0.75,2.2
		c0.45,0.45,1.1,0.68,1.98,0.68V317.58z M278.83,307.57c0-0.25-0.21-0.46-0.61-0.64c-0.53-0.23-1.16-0.35-1.87-0.35h-0.04
		c-1.17,0-2.07,0.35-2.72,1.04c-0.73,0.77-1.09,1.9-1.09,3.39c0,1.88,0.61,3.17,1.83,3.88c0.4,0.22,0.82,0.35,1.27,0.37
		c0.07,0.01,0.14,0.01,0.21,0.01c0.36,0,0.72-0.07,1.07-0.21c1.12-0.44,1.78-1.33,1.96-2.68V307.57z M272.72,301.04
		c0-0.21,0.04-0.4,0.12-0.57s0.19-0.33,0.32-0.47c0.13-0.13,0.29-0.24,0.46-0.31c0.17-0.08,0.36-0.11,0.55-0.11
		c0.2,0,0.38,0.04,0.56,0.11c0.18,0.08,0.33,0.18,0.47,0.31c0.13,0.13,0.24,0.29,0.31,0.47c0.08,0.18,0.11,0.37,0.11,0.57
		s-0.04,0.39-0.11,0.57c-0.08,0.17-0.18,0.33-0.31,0.45c-0.13,0.13-0.29,0.23-0.47,0.31c-0.18,0.08-0.37,0.11-0.56,0.11
		c-0.2,0-0.38-0.04-0.55-0.11c-0.17-0.08-0.33-0.18-0.46-0.31s-0.24-0.28-0.32-0.45S272.72,301.25,272.72,301.04z M276.2,301.04
		c0-0.21,0.04-0.4,0.12-0.57s0.19-0.33,0.32-0.47c0.13-0.13,0.29-0.24,0.47-0.31c0.18-0.08,0.37-0.11,0.57-0.11
		c0.2,0,0.38,0.04,0.55,0.11c0.17,0.08,0.33,0.18,0.45,0.31c0.13,0.13,0.23,0.29,0.31,0.47c0.08,0.18,0.11,0.37,0.11,0.57
		s-0.04,0.39-0.11,0.57c-0.08,0.17-0.18,0.33-0.31,0.45s-0.28,0.23-0.45,0.31c-0.17,0.08-0.36,0.11-0.55,0.11
		c-0.21,0-0.4-0.04-0.57-0.11c-0.18-0.08-0.33-0.18-0.47-0.31s-0.24-0.28-0.32-0.45S276.2,301.25,276.2,301.04z"/>
	<path d="M282.96,315.28h14.55c1.21,0,2.17-0.24,2.88-0.72c0.61-0.41,0.91-0.97,0.91-1.68c0-0.8-0.29-1.41-0.88-1.82
		c-0.66-0.45-1.64-0.68-2.94-0.68h-12.19l-0.01-1.13v-1.29c0.07-2.36,1.39-4.04,3.96-5.03c1.43-0.56,3.79-0.98,7.09-1.27
		c1.12-0.1,1.97-0.2,2.54-0.29l0.64,2.23c-0.68,0.12-1.63,0.23-2.86,0.33c-2.62,0.24-4.5,0.55-5.62,0.93
		c-1.88,0.65-2.84,1.69-2.88,3.12v0.11h9.33c2,0,3.61,0.42,4.82,1.27c1.25,0.86,1.87,2.04,1.87,3.52c0,1.42-0.64,2.56-1.92,3.43
		c-1.25,0.85-2.83,1.27-4.74,1.27h-14.55V315.28z"/>
	<path d="M313.37,317.58c-1.02-0.04-1.81-0.21-2.36-0.53c-0.18,0.94-0.53,1.91-1.05,2.9c-0.29,0.54-0.67,1.1-1.16,1.68
		c-0.45,0.53-1.02,1.13-1.74,1.79l-2-1.42c0.7-0.65,1.25-1.2,1.63-1.66c0.38-0.46,0.68-0.89,0.89-1.29c0.49-0.9,0.73-1.92,0.73-3.06
		c0-0.19-0.01-0.38-0.03-0.59v-8.72h2.87v6.07c0.05,0.77,0.3,1.39,0.73,1.84c0.45,0.45,1.01,0.68,1.7,0.68h1.15v2.3H313.37z"/>
	<path d="M326.97,312.4c0,0.95,0.25,1.69,0.75,2.2c0.45,0.45,1.01,0.68,1.7,0.68c0.72,0,1.3-0.22,1.74-0.67
		c0.5-0.52,0.75-1.25,0.75-2.22v-5.71h2.88v5.71c0,1.48-0.45,2.68-1.36,3.62c-1.01,1.04-2.35,1.56-4,1.56
		c-1.63,0-2.92-0.49-3.87-1.48c-0.97,0.99-2.28,1.48-3.94,1.48c-1.63,0-2.92-0.49-3.87-1.48c-0.97,0.99-2.37,1.48-4.21,1.48v-2.3
		c0.9,0,1.57-0.22,2.02-0.67c0.5-0.52,0.75-1.25,0.75-2.22v-5.71h2.87v5.71c0,0.95,0.25,1.69,0.75,2.2c0.45,0.45,1.01,0.68,1.7,0.68
		c0.72,0,1.3-0.22,1.74-0.67c0.51-0.52,0.76-1.25,0.76-2.22v-5.71h2.87V312.4z M321.75,303.3c0-0.2,0.04-0.4,0.12-0.57
		c0.08-0.18,0.19-0.33,0.32-0.47s0.29-0.24,0.46-0.31c0.17-0.08,0.36-0.11,0.55-0.11c0.2,0,0.38,0.04,0.56,0.11
		c0.18,0.08,0.33,0.18,0.47,0.31c0.13,0.13,0.24,0.29,0.31,0.47c0.08,0.18,0.11,0.37,0.11,0.57c0,0.21-0.04,0.39-0.11,0.57
		c-0.08,0.17-0.18,0.33-0.31,0.45c-0.13,0.13-0.29,0.23-0.47,0.31c-0.18,0.08-0.37,0.11-0.56,0.11c-0.2,0-0.38-0.04-0.55-0.11
		c-0.17-0.08-0.33-0.18-0.46-0.31s-0.24-0.28-0.32-0.45S321.75,303.5,321.75,303.3z M323.95,299.85c0-0.2,0.04-0.4,0.12-0.57
		c0.08-0.18,0.19-0.33,0.32-0.47c0.13-0.13,0.29-0.24,0.46-0.31c0.17-0.08,0.36-0.11,0.55-0.11c0.2,0,0.38,0.04,0.56,0.11
		c0.18,0.08,0.33,0.18,0.47,0.31s0.24,0.29,0.31,0.47c0.08,0.18,0.11,0.37,0.11,0.57c0,0.21-0.04,0.39-0.11,0.57
		c-0.08,0.17-0.18,0.33-0.31,0.45s-0.29,0.23-0.47,0.31c-0.18,0.08-0.36,0.11-0.56,0.11c-0.2,0-0.38-0.04-0.55-0.11
		c-0.17-0.08-0.33-0.18-0.46-0.31c-0.13-0.13-0.24-0.28-0.32-0.45C323.99,300.25,323.95,300.06,323.95,299.85z M326.14,303.3
		c0-0.2,0.04-0.4,0.12-0.57c0.08-0.18,0.19-0.33,0.32-0.47c0.13-0.13,0.29-0.24,0.47-0.31c0.18-0.08,0.37-0.11,0.57-0.11
		c0.2,0,0.38,0.04,0.55,0.11c0.17,0.08,0.32,0.18,0.45,0.31c0.13,0.13,0.23,0.29,0.31,0.47c0.08,0.18,0.11,0.37,0.11,0.57
		c0,0.21-0.04,0.39-0.11,0.57c-0.08,0.17-0.18,0.33-0.31,0.45c-0.13,0.13-0.28,0.23-0.45,0.31c-0.17,0.08-0.36,0.11-0.55,0.11
		c-0.21,0-0.4-0.04-0.57-0.11c-0.18-0.08-0.33-0.18-0.47-0.31c-0.13-0.13-0.24-0.28-0.32-0.45S326.14,303.5,326.14,303.3z"/>
</g>
<g>
	<path d="M107.4,341.83v-11.5h1.94l3.6,9.56l3.5-9.56h1.94v11.5h-1.41v-9.22l-3.36,9.22h-1.3l-3.52-9.22v9.22H107.4z"/>
	<path d="M123.97,330.32h1.69l4.15,11.51h-1.74l-1.15-3.43h-4.43l-1.24,3.43h-1.7L123.97,330.32z M124.76,332.04l-1.78,5.05h3.44
		L124.76,332.04z"/>
	<path d="M130.51,336.19c0-0.94,0.13-1.78,0.39-2.53c0.26-0.75,0.63-1.39,1.12-1.92c0.48-0.53,1.07-0.94,1.77-1.23
		s1.47-0.43,2.34-0.43c0.84,0,1.6,0.14,2.29,0.41s1.27,0.67,1.75,1.18c0.48,0.51,0.86,1.13,1.12,1.85c0.26,0.72,0.39,1.53,0.39,2.43
		c0,0.86-0.12,1.66-0.37,2.4c-0.25,0.74-0.61,1.39-1.09,1.94c-0.48,0.55-1.07,0.98-1.77,1.3c-0.7,0.31-1.5,0.47-2.4,0.47
		c-0.85,0-1.61-0.14-2.29-0.41s-1.26-0.67-1.74-1.18c-0.48-0.51-0.85-1.13-1.11-1.85C130.64,337.89,130.51,337.08,130.51,336.19z
		 M132.19,336.14c0,0.69,0.09,1.31,0.27,1.86c0.18,0.55,0.44,1.02,0.78,1.4c0.34,0.38,0.75,0.68,1.24,0.89
		c0.49,0.21,1.04,0.31,1.66,0.31c0.61,0,1.15-0.1,1.63-0.31c0.48-0.21,0.89-0.51,1.22-0.91c0.33-0.4,0.59-0.88,0.77-1.46
		c0.18-0.57,0.27-1.23,0.27-1.96c0-0.7-0.09-1.32-0.27-1.87c-0.18-0.55-0.43-1.01-0.77-1.39c-0.33-0.38-0.74-0.67-1.23-0.87
		c-0.48-0.2-1.03-0.3-1.63-0.3c-0.63,0-1.19,0.1-1.68,0.31s-0.9,0.5-1.23,0.9s-0.59,0.88-0.76,1.45
		C132.28,334.77,132.19,335.42,132.19,336.14z"/>
	<path d="M143.62,330.32h1.78l5.27,9.05v-9.05h1.62v11.51h-1.81l-5.26-9.13v9.13h-1.6V330.32z"/>
	<path d="M158.24,330.32h1.69l4.15,11.51h-1.74l-1.15-3.43h-4.43l-1.24,3.43h-1.7L158.24,330.32z M159.03,332.04l-1.78,5.05h3.44
		L159.03,332.04z"/>
	<path d="M165.59,330.32h1.6v4.71h5.46v-4.71h1.62v11.51h-1.62v-5.34h-5.46v5.34h-1.6V330.32z"/>
	<path class="st0" d="M180.38,330.32h9.21v1.44h-3.83v10.08h-1.6v-10.08h-3.79V330.32z"/>
	<path d="M191.17,330.32h4.79c0.37,0,0.68,0,0.95,0.01c0.26,0.01,0.49,0.03,0.69,0.06c0.2,0.03,0.38,0.07,0.53,0.12
		c0.16,0.05,0.31,0.12,0.47,0.2c1,0.54,1.5,1.46,1.5,2.78c0,0.34-0.03,0.64-0.09,0.9c-0.06,0.26-0.16,0.5-0.29,0.71
		c-0.13,0.21-0.3,0.4-0.51,0.56c-0.2,0.17-0.45,0.32-0.73,0.45c0.28,0.1,0.52,0.21,0.71,0.34c0.19,0.12,0.33,0.28,0.44,0.48
		c0.11,0.2,0.18,0.44,0.23,0.73s0.06,0.65,0.06,1.07v1.33c0,0.62,0.15,1.17,0.44,1.66l0.08,0.11h-1.9c-0.09-0.3-0.16-0.59-0.2-0.86
		c-0.04-0.27-0.06-0.53-0.06-0.78v-1.44c0-1.01-0.37-1.59-1.1-1.74c-0.26-0.05-0.7-0.08-1.31-0.08h-3.1v4.9h-1.6V330.32z
		 M192.77,331.76v3.72h3.02c0.3,0,0.54,0,0.73-0.01c0.19-0.01,0.35-0.02,0.48-0.04c0.13-0.02,0.24-0.05,0.34-0.08
		s0.2-0.09,0.31-0.15c0.53-0.29,0.8-0.81,0.8-1.57c0-0.39-0.08-0.73-0.24-1.02c-0.16-0.29-0.39-0.5-0.69-0.63
		c-0.3-0.14-0.83-0.21-1.59-0.21H192.77z"/>
	<path d="M205.78,330.32h1.69l4.15,11.51h-1.74l-1.15-3.43h-4.43l-1.24,3.43h-1.7L205.78,330.32z M206.57,332.04l-1.78,5.05h3.44
		L206.57,332.04z"/>
	<path d="M213.13,330.32h3.89c0.97,0,1.7,0.05,2.19,0.16c0.49,0.11,0.95,0.32,1.38,0.65c1.34,1.01,2.01,2.62,2.01,4.82
		c0,1.31-0.25,2.45-0.75,3.44s-1.17,1.67-2.03,2.06c-0.16,0.07-0.33,0.13-0.51,0.18c-0.18,0.05-0.37,0.09-0.59,0.12
		s-0.45,0.06-0.71,0.07c-0.26,0.01-0.55,0.02-0.87,0.02h-4.03V330.32z M214.73,331.76v8.63h2.33c1.08,0,1.86-0.17,2.35-0.52
		c1.02-0.7,1.54-2.02,1.54-3.95c0-0.96-0.16-1.78-0.48-2.44c-0.32-0.66-0.79-1.14-1.4-1.42c-0.41-0.2-1.1-0.3-2.06-0.3H214.73z"/>
	<path d="M224.55,330.32h1.6v11.51h-1.6V330.32z"/>
	<path d="M228.84,330.32h1.78l5.27,9.05v-9.05h1.62v11.51h-1.81l-5.26-9.13v9.13h-1.6V330.32z"/>
	<path d="M249.68,333.88h-1.63c-0.06-0.21-0.12-0.38-0.17-0.53c-0.05-0.14-0.11-0.27-0.17-0.39c-0.06-0.12-0.13-0.22-0.21-0.32
		s-0.17-0.21-0.28-0.31c-0.53-0.52-1.3-0.78-2.33-0.78c-0.6,0-1.14,0.1-1.61,0.31s-0.86,0.51-1.19,0.9s-0.57,0.87-0.74,1.43
		s-0.25,1.21-0.25,1.93c0,0.69,0.09,1.32,0.26,1.87c0.17,0.55,0.42,1.02,0.74,1.41c0.32,0.39,0.72,0.68,1.18,0.89
		c0.47,0.21,1,0.31,1.6,0.31c0.39,0,0.76-0.05,1.11-0.16c0.35-0.1,0.67-0.25,0.96-0.45s0.54-0.44,0.75-0.72s0.38-0.61,0.5-0.98
		c0.11-0.33,0.16-0.78,0.16-1.35h-3.6v-1.31h5.03v6.13h-1.01l-0.38-1.4c-0.52,0.6-1.07,1.04-1.64,1.31
		c-0.57,0.26-1.24,0.39-2.01,0.39c-0.81,0-1.54-0.14-2.2-0.42c-0.65-0.28-1.21-0.68-1.67-1.19c-0.46-0.51-0.82-1.13-1.07-1.86
		c-0.25-0.73-0.38-1.53-0.38-2.42c0-0.93,0.13-1.77,0.39-2.52c0.26-0.75,0.63-1.39,1.11-1.91c0.48-0.53,1.06-0.93,1.73-1.22
		s1.43-0.43,2.26-0.43c1.6,0,2.81,0.47,3.64,1.4c0.15,0.18,0.29,0.35,0.4,0.52c0.12,0.17,0.21,0.34,0.29,0.51
		c0.08,0.17,0.15,0.37,0.22,0.6C249.56,333.34,249.62,333.6,249.68,333.88z"/>
	<path d="M266.44,333.92h-1.63c-0.05-0.21-0.1-0.39-0.15-0.54c-0.04-0.15-0.1-0.28-0.16-0.39c-0.06-0.11-0.13-0.22-0.21-0.32
		s-0.18-0.21-0.3-0.32c-0.57-0.53-1.35-0.8-2.34-0.8c-0.58,0-1.1,0.1-1.56,0.31c-0.46,0.2-0.85,0.5-1.17,0.89s-0.56,0.87-0.73,1.44
		s-0.25,1.21-0.25,1.94c0,0.69,0.08,1.31,0.24,1.86c0.16,0.55,0.39,1.02,0.7,1.41c0.31,0.39,0.68,0.69,1.13,0.9
		c0.44,0.21,0.95,0.32,1.51,0.32c0.9,0,1.63-0.26,2.21-0.79c0.57-0.52,0.93-1.27,1.08-2.25h1.63c-0.15,1.02-0.48,1.88-0.99,2.58
		c-0.94,1.27-2.23,1.91-3.89,1.91c-0.82,0-1.56-0.14-2.21-0.41c-0.65-0.27-1.21-0.66-1.67-1.17c-0.46-0.51-0.81-1.12-1.05-1.84
		c-0.24-0.72-0.36-1.53-0.36-2.43c0-2.15,0.61-3.76,1.82-4.83c0.27-0.23,0.53-0.43,0.8-0.59c0.27-0.16,0.54-0.3,0.81-0.4
		c0.53-0.2,1.17-0.3,1.91-0.3c0.68,0,1.31,0.09,1.88,0.27s1.07,0.43,1.48,0.76s0.75,0.73,1.01,1.21
		C266.23,332.79,266.38,333.32,266.44,333.92z"/>
	<path d="M267.68,336.19c0-0.94,0.13-1.78,0.39-2.53s0.63-1.39,1.12-1.92s1.07-0.94,1.77-1.23s1.47-0.43,2.34-0.43
		c0.84,0,1.6,0.14,2.29,0.41s1.27,0.67,1.75,1.18s0.86,1.13,1.12,1.85c0.26,0.72,0.39,1.53,0.39,2.43c0,0.86-0.12,1.66-0.37,2.4
		c-0.25,0.74-0.61,1.39-1.09,1.94c-0.48,0.55-1.07,0.98-1.77,1.3s-1.5,0.47-2.4,0.47c-0.85,0-1.61-0.14-2.29-0.41
		s-1.26-0.67-1.74-1.18s-0.85-1.13-1.11-1.85C267.81,337.89,267.68,337.08,267.68,336.19z M269.36,336.14
		c0,0.69,0.09,1.31,0.27,1.86c0.18,0.55,0.44,1.02,0.78,1.4c0.34,0.38,0.75,0.68,1.24,0.89c0.49,0.21,1.04,0.31,1.66,0.31
		c0.61,0,1.15-0.1,1.63-0.31c0.48-0.21,0.89-0.51,1.22-0.91c0.33-0.4,0.59-0.88,0.77-1.46c0.18-0.57,0.27-1.23,0.27-1.96
		c0-0.7-0.09-1.32-0.27-1.87s-0.43-1.01-0.77-1.39c-0.33-0.38-0.74-0.67-1.23-0.87s-1.03-0.3-1.63-0.3c-0.63,0-1.19,0.1-1.68,0.31
		s-0.9,0.5-1.23,0.9s-0.59,0.88-0.76,1.45S269.36,335.42,269.36,336.14z"/>
	<path d="M280.43,341.83v-11.5h1.94l3.6,9.56l3.5-9.56h1.94v11.5H290v-9.22l-3.36,9.22h-1.3l-3.52-9.22v9.22H280.43z"/>
	<path d="M293.63,341.85v-11.52h4.19c0.34,0,0.64,0.01,0.89,0.02c0.25,0.01,0.47,0.04,0.66,0.08s0.36,0.08,0.51,0.14
		c0.15,0.06,0.3,0.13,0.44,0.21c0.46,0.25,0.82,0.62,1.06,1.12c0.25,0.5,0.37,1.09,0.37,1.76c0,0.41-0.05,0.79-0.16,1.15
		c-0.1,0.36-0.26,0.68-0.46,0.96c-0.2,0.28-0.46,0.52-0.76,0.71s-0.65,0.33-1.04,0.4c-0.37,0.07-0.97,0.11-1.82,0.11h-2.35v4.86
		H293.63z M295.17,335.6h2.6c0.46,0,0.84-0.03,1.14-0.1c0.31-0.07,0.56-0.18,0.75-0.34c0.19-0.16,0.33-0.36,0.41-0.6
		c0.08-0.25,0.12-0.55,0.12-0.9c0-0.34-0.04-0.63-0.13-0.87c-0.09-0.24-0.22-0.44-0.4-0.6c-0.18-0.16-0.42-0.27-0.71-0.34
		c-0.29-0.07-0.65-0.11-1.06-0.11h-2.72V335.6z"/>
	<path d="M306.96,330.32h1.69l4.15,11.51h-1.74l-1.15-3.43h-4.43l-1.24,3.43h-1.7L306.96,330.32z M307.75,332.04l-1.78,5.05h3.44
		L307.75,332.04z"/>
	<path d="M314.31,330.32h1.78l5.27,9.05v-9.05h1.62v11.51h-1.81l-5.26-9.13v9.13h-1.6V330.32z"/>
	<path d="M324.35,330.32h2.01l3.34,5.46l3.28-5.46h1.92l-4.42,6.98v4.54h-1.63v-4.54L324.35,330.32z"/>
</g>
<line class="st2" x1="106.37" y1="293.84" x2="335.85" y2="293.84"/>
<line class="st2" x1="106.37" y1="349.45" x2="335.85" y2="349.45"/>
</svg>
